<?xml version="1.0" encoding="UTF-8"?>
<svg xmlns="http://www.w3.org/2000/svg" 
     width="100%" height="100%" overflow="scroll" viewBox="0 0 720 509">
  <defs>
    <filter id="blur"><feGaussianBlur in="SourceGraphic" stdDeviation="1" /></filter>
    <rect id="P7" width="70" height="70" stroke-width="0" fill="#000" />
    <rect id="P5" width="50" height="50" stroke-width="0" fill="#fff" />
    <rect id="P3" width="30" height="30" stroke-width="0" fill="#000" />
    <rect id="A5" width="50" height="50" stroke-width="0" fill="#000" />
    <rect id="A3" width="30" height="30" stroke-width="0" fill="#fff" />
    <rect id="A1" width="10" height="10" stroke-width="0" fill="#000" />

    <!-- User has a choice: dots for a punch? or grid for a marker? or both? -->
    <g id="D">
    <rect width="10" height="10" stroke-width="0.4" stroke="#888" fill="#fff" />
    <!--<circle cx="5" cy="5" r="1" fill="#ccc" />-->
    </g>

    <!-- User has a choice: timing as circles? or as blocks? or no timing markers? -->
    <!--<rect id="T" width="10" height="10" stroke-width="0" fill="#000" />-->
    <!--<circle id="T" cx="5" cy="5" r="4" fill="#000" filter="url(#blur)" />-->

  </defs>

<g id="Mnemonic_24">
<rect x="0" y="0" width="360" height="509" fill="#fff" stroke="#000" stroke-width="0.5" rx="10" />

<g id="Words_24">
<text x="32" y="104" font-size="20" fill="#000">1.</text>
<line x1="52.5" y1="104" x2="165.6" y2="104" stroke-width="0.9" stroke="#333" />
<text x="194" y="104" font-size="20" fill="#000">13.</text>
<line x1="226.9" y1="104" x2="340" y2="104" stroke-width="0.9" stroke="#333" />
<text x="32" y="127" font-size="20" fill="#000">2.</text>
<line x1="52.5" y1="127.1" x2="165.6" y2="127.1" stroke-width="0.9" stroke="#333" />
<text x="194" y="127" font-size="20" fill="#000">14.</text>
<line x1="226.9" y1="127.1" x2="340" y2="127.1" stroke-width="0.9" stroke="#333" />
<text x="32" y="150" font-size="20" fill="#000">3.</text>
<line x1="52.5" y1="150.2" x2="165.6" y2="150.2" stroke-width="0.9" stroke="#333" />
<text x="194" y="150" font-size="20" fill="#000">15.</text>
<line x1="226.9" y1="150.2" x2="340" y2="150.2" stroke-width="0.9" stroke="#333" />
<text x="32" y="173" font-size="20" fill="#000">4.</text>
<line x1="52.5" y1="173.2" x2="165.6" y2="173.2" stroke-width="0.9" stroke="#333" />
<text x="194" y="173" font-size="20" fill="#000">16.</text>
<line x1="226.9" y1="173.2" x2="340" y2="173.2" stroke-width="0.9" stroke="#333" />
<text x="32" y="219" font-size="20" fill="#000">5.</text>
<line x1="52.5" y1="219.4" x2="165.6" y2="219.4" stroke-width="0.9" stroke="#333" />
<text x="194" y="219" font-size="20" fill="#000">17.</text>
<line x1="226.9" y1="219.4" x2="340" y2="219.4" stroke-width="0.9" stroke="#333" />
<text x="32" y="242" font-size="20" fill="#000">6.</text>
<line x1="52.5" y1="242.5" x2="165.6" y2="242.5" stroke-width="0.9" stroke="#333" />
<text x="194" y="242" font-size="20" fill="#000">18.</text>
<line x1="226.9" y1="242.5" x2="340" y2="242.5" stroke-width="0.9" stroke="#333" />
<text x="32" y="266" font-size="20" fill="#000">7.</text>
<line x1="52.5" y1="265.5" x2="165.6" y2="265.5" stroke-width="0.9" stroke="#333" />
<text x="194" y="266" font-size="20" fill="#000">19.</text>
<line x1="226.9" y1="265.5" x2="340" y2="265.5" stroke-width="0.9" stroke="#333" />
<text x="32" y="289" font-size="20" fill="#000">8.</text>
<line x1="52.5" y1="288.6" x2="165.6" y2="288.6" stroke-width="0.9" stroke="#333" />
<text x="194" y="289" font-size="20" fill="#000">20.</text>
<line x1="226.9" y1="288.6" x2="340" y2="288.6" stroke-width="0.9" stroke="#333" />
<text x="32" y="335" font-size="20" fill="#000">9.</text>
<line x1="52.5" y1="334.8" x2="165.6" y2="334.8" stroke-width="0.9" stroke="#333" />
<text x="194" y="335" font-size="20" fill="#000">21.</text>
<line x1="226.9" y1="334.8" x2="340" y2="334.8" stroke-width="0.9" stroke="#333" />
<text x="20" y="358" font-size="20" fill="#000">10.</text>
<line x1="52.5" y1="357.8" x2="165.6" y2="357.8" stroke-width="0.9" stroke="#333" />
<text x="194" y="358" font-size="20" fill="#000">22.</text>
<line x1="226.9" y1="357.8" x2="340" y2="357.8" stroke-width="0.9" stroke="#333" />
<text x="20" y="381" font-size="20" fill="#000">11.</text>
<line x1="52.5" y1="380.9" x2="165.6" y2="380.9" stroke-width="0.9" stroke="#333" />
<text x="194" y="381" font-size="20" fill="#000">23.</text>
<line x1="226.9" y1="380.9" x2="340" y2="380.9" stroke-width="0.9" stroke="#333" />
<text x="20" y="404" font-size="20" fill="#000">12.</text>
<line x1="52.5" y1="404.0" x2="165.6" y2="404.0" stroke-width="0.9" stroke="#333" />
<text x="194" y="404" font-size="20" fill="#000">24.</text>
<line x1="226.9" y1="404.0" x2="340" y2="404.0" stroke-width="0.9" stroke="#333" />
</g><!-- end of Group id=Words_24 -->


<g id="MnNotes_24">
<rect x="72" y="30" width="216" height="30" fill="#fff" stroke="#000" stroke-width="3.0" rx="15.0" />
<text x="80" y="50" font-size="20" fill="#333">⚿</text>
<rect x="20" y="438" width="320" height="49" fill="#fff" stroke="#000" stroke-width="3.0" rx="10" />
<text x="28" y="458" font-size="20" fill="#333">✽</text>
<text x="72" y="420" font-size="13.0" fill="#000">Never enter these words into a device</text>
<text x="100" y="434" font-size="13.0" fill="#000">that connects to the internet.</text>
</g><!-- end of Group id=MnNotes_24 -->

</g><!-- end of Group id=Mnemonic_24 -->

<g id="QRCode_29">
<rect x="360" y="0" width="360" height="509" fill="#fff" stroke="#000" stroke-width="0.5" rx="10" />

<g id="Quiet_29">
<use href="#D" x="400" y="174" />
<use href="#D" x="470" y="104" />
<use href="#D" x="400" y="314" />
<use href="#D" x="610" y="104" />
<use href="#D" x="680" y="174" />
<use href="#D" x="470" y="384" />
<use href="#D" x="410" y="174" />
<use href="#D" x="470" y="114" />
<use href="#D" x="410" y="314" />
<use href="#D" x="610" y="114" />
<use href="#D" x="670" y="174" />
<use href="#D" x="470" y="374" />
<use href="#D" x="420" y="174" />
<use href="#D" x="470" y="124" />
<use href="#D" x="420" y="314" />
<use href="#D" x="610" y="124" />
<use href="#D" x="660" y="174" />
<use href="#D" x="470" y="364" />
<use href="#D" x="430" y="174" />
<use href="#D" x="470" y="134" />
<use href="#D" x="430" y="314" />
<use href="#D" x="610" y="134" />
<use href="#D" x="650" y="174" />
<use href="#D" x="470" y="354" />
<use href="#D" x="440" y="174" />
<use href="#D" x="470" y="144" />
<use href="#D" x="440" y="314" />
<use href="#D" x="610" y="144" />
<use href="#D" x="640" y="174" />
<use href="#D" x="470" y="344" />
<use href="#D" x="450" y="174" />
<use href="#D" x="470" y="154" />
<use href="#D" x="450" y="314" />
<use href="#D" x="610" y="154" />
<use href="#D" x="630" y="174" />
<use href="#D" x="470" y="334" />
<use href="#D" x="460" y="174" />
<use href="#D" x="470" y="164" />
<use href="#D" x="460" y="314" />
<use href="#D" x="610" y="164" />
<use href="#D" x="620" y="174" />
<use href="#D" x="470" y="324" />
<use href="#D" x="470" y="174" />
<use href="#D" x="610" y="174" />
<use href="#D" x="470" y="314" />
<use href="#D" x="490" y="164" />
<use href="#D" x="460" y="194" />
<use href="#D" x="510" y="164" />
<use href="#D" x="460" y="214" />
<use href="#D" x="530" y="164" />
<use href="#D" x="460" y="234" />
<use href="#D" x="550" y="164" />
<use href="#D" x="460" y="254" />
<use href="#D" x="570" y="164" />
<use href="#D" x="460" y="274" />
<use href="#D" x="590" y="164" />
<use href="#D" x="460" y="294" />
</g><!-- end of Group id=Quiet_29 -->


<g id="Timing_29">
<use href="#T" x="480" y="164" />
<use href="#T" x="460" y="184" />
<use href="#T" x="500" y="164" />
<use href="#T" x="460" y="204" />
<use href="#T" x="520" y="164" />
<use href="#T" x="460" y="224" />
<use href="#T" x="540" y="164" />
<use href="#T" x="460" y="244" />
<use href="#T" x="560" y="164" />
<use href="#T" x="460" y="264" />
<use href="#T" x="580" y="164" />
<use href="#T" x="460" y="284" />
<use href="#T" x="600" y="164" />
<use href="#T" x="460" y="304" />
</g><!-- end of Group id=Timing_29 -->


<g id="Headers_29">
<text x="420" y="94" font-size="20" fill="#000">1</text>
<text x="380" y="134" font-size="20" fill="#000">A</text>
<text x="470" y="94" font-size="20" fill="#000">2</text>
<text x="380" y="184" font-size="20" fill="#000">B</text>
<text x="520" y="94" font-size="20" fill="#000">3</text>
<text x="380" y="234" font-size="20" fill="#000">C</text>
<text x="570" y="94" font-size="20" fill="#000">4</text>
<text x="380" y="284" font-size="20" fill="#000">D</text>
<text x="620" y="94" font-size="20" fill="#000">5</text>
<text x="380" y="334" font-size="20" fill="#000">E</text>
<text x="670" y="94" font-size="20" fill="#000">6</text>
<text x="380" y="384" font-size="20" fill="#000">F</text>
</g><!-- end of Group id=Headers_29 -->


<g id="Data_29">
<use href="#D" x="480" y="104" />
<use href="#D" x="400" y="184" />
<use href="#D" x="480" y="114" />
<use href="#D" x="410" y="184" />
<use href="#D" x="480" y="124" />
<use href="#D" x="420" y="184" />
<use href="#D" x="480" y="134" />
<use href="#D" x="430" y="184" />
<use href="#D" x="480" y="144" />
<use href="#D" x="440" y="184" />
<use href="#D" x="480" y="154" />
<use href="#D" x="450" y="184" />
<use href="#D" x="490" y="104" />
<use href="#D" x="400" y="194" />
<use href="#D" x="490" y="114" />
<use href="#D" x="410" y="194" />
<use href="#D" x="490" y="124" />
<use href="#D" x="420" y="194" />
<use href="#D" x="490" y="134" />
<use href="#D" x="430" y="194" />
<use href="#D" x="490" y="144" />
<use href="#D" x="440" y="194" />
<use href="#D" x="490" y="154" />
<use href="#D" x="450" y="194" />
<use href="#D" x="500" y="104" />
<use href="#D" x="400" y="204" />
<use href="#D" x="500" y="114" />
<use href="#D" x="410" y="204" />
<use href="#D" x="500" y="124" />
<use href="#D" x="420" y="204" />
<use href="#D" x="500" y="134" />
<use href="#D" x="430" y="204" />
<use href="#D" x="500" y="144" />
<use href="#D" x="440" y="204" />
<use href="#D" x="500" y="154" />
<use href="#D" x="450" y="204" />
<use href="#D" x="510" y="104" />
<use href="#D" x="400" y="214" />
<use href="#D" x="510" y="114" />
<use href="#D" x="410" y="214" />
<use href="#D" x="510" y="124" />
<use href="#D" x="420" y="214" />
<use href="#D" x="510" y="134" />
<use href="#D" x="430" y="214" />
<use href="#D" x="510" y="144" />
<use href="#D" x="440" y="214" />
<use href="#D" x="510" y="154" />
<use href="#D" x="450" y="214" />
<use href="#D" x="520" y="104" />
<use href="#D" x="400" y="224" />
<use href="#D" x="520" y="114" />
<use href="#D" x="410" y="224" />
<use href="#D" x="520" y="124" />
<use href="#D" x="420" y="224" />
<use href="#D" x="520" y="134" />
<use href="#D" x="430" y="224" />
<use href="#D" x="520" y="144" />
<use href="#D" x="440" y="224" />
<use href="#D" x="520" y="154" />
<use href="#D" x="450" y="224" />
<use href="#D" x="530" y="104" />
<use href="#D" x="400" y="234" />
<use href="#D" x="530" y="114" />
<use href="#D" x="410" y="234" />
<use href="#D" x="530" y="124" />
<use href="#D" x="420" y="234" />
<use href="#D" x="530" y="134" />
<use href="#D" x="430" y="234" />
<use href="#D" x="530" y="144" />
<use href="#D" x="440" y="234" />
<use href="#D" x="530" y="154" />
<use href="#D" x="450" y="234" />
<use href="#D" x="540" y="104" />
<use href="#D" x="400" y="244" />
<use href="#D" x="540" y="114" />
<use href="#D" x="410" y="244" />
<use href="#D" x="540" y="124" />
<use href="#D" x="420" y="244" />
<use href="#D" x="540" y="134" />
<use href="#D" x="430" y="244" />
<use href="#D" x="540" y="144" />
<use href="#D" x="440" y="244" />
<use href="#D" x="540" y="154" />
<use href="#D" x="450" y="244" />
<use href="#D" x="550" y="104" />
<use href="#D" x="400" y="254" />
<use href="#D" x="550" y="114" />
<use href="#D" x="410" y="254" />
<use href="#D" x="550" y="124" />
<use href="#D" x="420" y="254" />
<use href="#D" x="550" y="134" />
<use href="#D" x="430" y="254" />
<use href="#D" x="550" y="144" />
<use href="#D" x="440" y="254" />
<use href="#D" x="550" y="154" />
<use href="#D" x="450" y="254" />
<use href="#D" x="560" y="104" />
<use href="#D" x="400" y="264" />
<use href="#D" x="560" y="114" />
<use href="#D" x="410" y="264" />
<use href="#D" x="560" y="124" />
<use href="#D" x="420" y="264" />
<use href="#D" x="560" y="134" />
<use href="#D" x="430" y="264" />
<use href="#D" x="560" y="144" />
<use href="#D" x="440" y="264" />
<use href="#D" x="560" y="154" />
<use href="#D" x="450" y="264" />
<use href="#D" x="570" y="104" />
<use href="#D" x="400" y="274" />
<use href="#D" x="570" y="114" />
<use href="#D" x="410" y="274" />
<use href="#D" x="570" y="124" />
<use href="#D" x="420" y="274" />
<use href="#D" x="570" y="134" />
<use href="#D" x="430" y="274" />
<use href="#D" x="570" y="144" />
<use href="#D" x="440" y="274" />
<use href="#D" x="570" y="154" />
<use href="#D" x="450" y="274" />
<use href="#D" x="580" y="104" />
<use href="#D" x="400" y="284" />
<use href="#D" x="580" y="114" />
<use href="#D" x="410" y="284" />
<use href="#D" x="580" y="124" />
<use href="#D" x="420" y="284" />
<use href="#D" x="580" y="134" />
<use href="#D" x="430" y="284" />
<use href="#D" x="580" y="144" />
<use href="#D" x="440" y="284" />
<use href="#D" x="580" y="154" />
<use href="#D" x="450" y="284" />
<use href="#D" x="590" y="104" />
<use href="#D" x="400" y="294" />
<use href="#D" x="590" y="114" />
<use href="#D" x="410" y="294" />
<use href="#D" x="590" y="124" />
<use href="#D" x="420" y="294" />
<use href="#D" x="590" y="134" />
<use href="#D" x="430" y="294" />
<use href="#D" x="590" y="144" />
<use href="#D" x="440" y="294" />
<use href="#D" x="590" y="154" />
<use href="#D" x="450" y="294" />
<use href="#D" x="600" y="104" />
<use href="#D" x="400" y="304" />
<use href="#D" x="600" y="114" />
<use href="#D" x="410" y="304" />
<use href="#D" x="600" y="124" />
<use href="#D" x="420" y="304" />
<use href="#D" x="600" y="134" />
<use href="#D" x="430" y="304" />
<use href="#D" x="600" y="144" />
<use href="#D" x="440" y="304" />
<use href="#D" x="600" y="154" />
<use href="#D" x="450" y="304" />
<use href="#D" x="470" y="184" />
<use href="#D" x="470" y="194" />
<use href="#D" x="470" y="204" />
<use href="#D" x="470" y="214" />
<use href="#D" x="470" y="224" />
<use href="#D" x="470" y="234" />
<use href="#D" x="470" y="244" />
<use href="#D" x="470" y="254" />
<use href="#D" x="470" y="264" />
<use href="#D" x="470" y="274" />
<use href="#D" x="470" y="284" />
<use href="#D" x="470" y="294" />
<use href="#D" x="470" y="304" />
<use href="#D" x="480" y="174" />
<use href="#D" x="480" y="184" />
<use href="#D" x="480" y="194" />
<use href="#D" x="480" y="204" />
<use href="#D" x="480" y="214" />
<use href="#D" x="480" y="224" />
<use href="#D" x="480" y="234" />
<use href="#D" x="480" y="244" />
<use href="#D" x="480" y="254" />
<use href="#D" x="480" y="264" />
<use href="#D" x="480" y="274" />
<use href="#D" x="480" y="284" />
<use href="#D" x="480" y="294" />
<use href="#D" x="480" y="304" />
<use href="#D" x="480" y="314" />
<use href="#D" x="480" y="324" />
<use href="#D" x="480" y="334" />
<use href="#D" x="480" y="344" />
<use href="#D" x="480" y="354" />
<use href="#D" x="480" y="364" />
<use href="#D" x="480" y="374" />
<use href="#D" x="480" y="384" />
<use href="#D" x="490" y="174" />
<use href="#D" x="490" y="184" />
<use href="#D" x="490" y="194" />
<use href="#D" x="490" y="204" />
<use href="#D" x="490" y="214" />
<use href="#D" x="490" y="224" />
<use href="#D" x="490" y="234" />
<use href="#D" x="490" y="244" />
<use href="#D" x="490" y="254" />
<use href="#D" x="490" y="264" />
<use href="#D" x="490" y="274" />
<use href="#D" x="490" y="284" />
<use href="#D" x="490" y="294" />
<use href="#D" x="490" y="304" />
<use href="#D" x="490" y="314" />
<use href="#D" x="490" y="324" />
<use href="#D" x="490" y="334" />
<use href="#D" x="490" y="344" />
<use href="#D" x="490" y="354" />
<use href="#D" x="490" y="364" />
<use href="#D" x="490" y="374" />
<use href="#D" x="490" y="384" />
<use href="#D" x="500" y="174" />
<use href="#D" x="500" y="184" />
<use href="#D" x="500" y="194" />
<use href="#D" x="500" y="204" />
<use href="#D" x="500" y="214" />
<use href="#D" x="500" y="224" />
<use href="#D" x="500" y="234" />
<use href="#D" x="500" y="244" />
<use href="#D" x="500" y="254" />
<use href="#D" x="500" y="264" />
<use href="#D" x="500" y="274" />
<use href="#D" x="500" y="284" />
<use href="#D" x="500" y="294" />
<use href="#D" x="500" y="304" />
<use href="#D" x="500" y="314" />
<use href="#D" x="500" y="324" />
<use href="#D" x="500" y="334" />
<use href="#D" x="500" y="344" />
<use href="#D" x="500" y="354" />
<use href="#D" x="500" y="364" />
<use href="#D" x="500" y="374" />
<use href="#D" x="500" y="384" />
<use href="#D" x="510" y="174" />
<use href="#D" x="510" y="184" />
<use href="#D" x="510" y="194" />
<use href="#D" x="510" y="204" />
<use href="#D" x="510" y="214" />
<use href="#D" x="510" y="224" />
<use href="#D" x="510" y="234" />
<use href="#D" x="510" y="244" />
<use href="#D" x="510" y="254" />
<use href="#D" x="510" y="264" />
<use href="#D" x="510" y="274" />
<use href="#D" x="510" y="284" />
<use href="#D" x="510" y="294" />
<use href="#D" x="510" y="304" />
<use href="#D" x="510" y="314" />
<use href="#D" x="510" y="324" />
<use href="#D" x="510" y="334" />
<use href="#D" x="510" y="344" />
<use href="#D" x="510" y="354" />
<use href="#D" x="510" y="364" />
<use href="#D" x="510" y="374" />
<use href="#D" x="510" y="384" />
<use href="#D" x="520" y="174" />
<use href="#D" x="520" y="184" />
<use href="#D" x="520" y="194" />
<use href="#D" x="520" y="204" />
<use href="#D" x="520" y="214" />
<use href="#D" x="520" y="224" />
<use href="#D" x="520" y="234" />
<use href="#D" x="520" y="244" />
<use href="#D" x="520" y="254" />
<use href="#D" x="520" y="264" />
<use href="#D" x="520" y="274" />
<use href="#D" x="520" y="284" />
<use href="#D" x="520" y="294" />
<use href="#D" x="520" y="304" />
<use href="#D" x="520" y="314" />
<use href="#D" x="520" y="324" />
<use href="#D" x="520" y="334" />
<use href="#D" x="520" y="344" />
<use href="#D" x="520" y="354" />
<use href="#D" x="520" y="364" />
<use href="#D" x="520" y="374" />
<use href="#D" x="520" y="384" />
<use href="#D" x="530" y="174" />
<use href="#D" x="530" y="184" />
<use href="#D" x="530" y="194" />
<use href="#D" x="530" y="204" />
<use href="#D" x="530" y="214" />
<use href="#D" x="530" y="224" />
<use href="#D" x="530" y="234" />
<use href="#D" x="530" y="244" />
<use href="#D" x="530" y="254" />
<use href="#D" x="530" y="264" />
<use href="#D" x="530" y="274" />
<use href="#D" x="530" y="284" />
<use href="#D" x="530" y="294" />
<use href="#D" x="530" y="304" />
<use href="#D" x="530" y="314" />
<use href="#D" x="530" y="324" />
<use href="#D" x="530" y="334" />
<use href="#D" x="530" y="344" />
<use href="#D" x="530" y="354" />
<use href="#D" x="530" y="364" />
<use href="#D" x="530" y="374" />
<use href="#D" x="530" y="384" />
<use href="#D" x="540" y="174" />
<use href="#D" x="540" y="184" />
<use href="#D" x="540" y="194" />
<use href="#D" x="540" y="204" />
<use href="#D" x="540" y="214" />
<use href="#D" x="540" y="224" />
<use href="#D" x="540" y="234" />
<use href="#D" x="540" y="244" />
<use href="#D" x="540" y="254" />
<use href="#D" x="540" y="264" />
<use href="#D" x="540" y="274" />
<use href="#D" x="540" y="284" />
<use href="#D" x="540" y="294" />
<use href="#D" x="540" y="304" />
<use href="#D" x="540" y="314" />
<use href="#D" x="540" y="324" />
<use href="#D" x="540" y="334" />
<use href="#D" x="540" y="344" />
<use href="#D" x="540" y="354" />
<use href="#D" x="540" y="364" />
<use href="#D" x="540" y="374" />
<use href="#D" x="540" y="384" />
<use href="#D" x="550" y="174" />
<use href="#D" x="550" y="184" />
<use href="#D" x="550" y="194" />
<use href="#D" x="550" y="204" />
<use href="#D" x="550" y="214" />
<use href="#D" x="550" y="224" />
<use href="#D" x="550" y="234" />
<use href="#D" x="550" y="244" />
<use href="#D" x="550" y="254" />
<use href="#D" x="550" y="264" />
<use href="#D" x="550" y="274" />
<use href="#D" x="550" y="284" />
<use href="#D" x="550" y="294" />
<use href="#D" x="550" y="304" />
<use href="#D" x="550" y="314" />
<use href="#D" x="550" y="324" />
<use href="#D" x="550" y="334" />
<use href="#D" x="550" y="344" />
<use href="#D" x="550" y="354" />
<use href="#D" x="550" y="364" />
<use href="#D" x="550" y="374" />
<use href="#D" x="550" y="384" />
<use href="#D" x="560" y="174" />
<use href="#D" x="560" y="184" />
<use href="#D" x="560" y="194" />
<use href="#D" x="560" y="204" />
<use href="#D" x="560" y="214" />
<use href="#D" x="560" y="224" />
<use href="#D" x="560" y="234" />
<use href="#D" x="560" y="244" />
<use href="#D" x="560" y="254" />
<use href="#D" x="560" y="264" />
<use href="#D" x="560" y="274" />
<use href="#D" x="560" y="284" />
<use href="#D" x="560" y="294" />
<use href="#D" x="560" y="304" />
<use href="#D" x="560" y="314" />
<use href="#D" x="560" y="324" />
<use href="#D" x="560" y="334" />
<use href="#D" x="560" y="344" />
<use href="#D" x="560" y="354" />
<use href="#D" x="560" y="364" />
<use href="#D" x="560" y="374" />
<use href="#D" x="560" y="384" />
<use href="#D" x="570" y="174" />
<use href="#D" x="570" y="184" />
<use href="#D" x="570" y="194" />
<use href="#D" x="570" y="204" />
<use href="#D" x="570" y="214" />
<use href="#D" x="570" y="224" />
<use href="#D" x="570" y="234" />
<use href="#D" x="570" y="244" />
<use href="#D" x="570" y="254" />
<use href="#D" x="570" y="264" />
<use href="#D" x="570" y="274" />
<use href="#D" x="570" y="284" />
<use href="#D" x="570" y="294" />
<use href="#D" x="570" y="304" />
<use href="#D" x="570" y="314" />
<use href="#D" x="570" y="324" />
<use href="#D" x="570" y="334" />
<use href="#D" x="570" y="344" />
<use href="#D" x="570" y="354" />
<use href="#D" x="570" y="364" />
<use href="#D" x="570" y="374" />
<use href="#D" x="570" y="384" />
<use href="#D" x="580" y="174" />
<use href="#D" x="580" y="184" />
<use href="#D" x="580" y="194" />
<use href="#D" x="580" y="204" />
<use href="#D" x="580" y="214" />
<use href="#D" x="580" y="224" />
<use href="#D" x="580" y="234" />
<use href="#D" x="580" y="244" />
<use href="#D" x="580" y="254" />
<use href="#D" x="580" y="264" />
<use href="#D" x="580" y="274" />
<use href="#D" x="580" y="284" />
<use href="#D" x="580" y="294" />
<use href="#D" x="580" y="304" />
<use href="#D" x="580" y="314" />
<use href="#D" x="580" y="324" />
<use href="#D" x="580" y="334" />
<use href="#D" x="580" y="344" />
<use href="#D" x="580" y="354" />
<use href="#D" x="580" y="364" />
<use href="#D" x="580" y="374" />
<use href="#D" x="580" y="384" />
<use href="#D" x="590" y="174" />
<use href="#D" x="590" y="184" />
<use href="#D" x="590" y="194" />
<use href="#D" x="590" y="204" />
<use href="#D" x="590" y="214" />
<use href="#D" x="590" y="224" />
<use href="#D" x="590" y="234" />
<use href="#D" x="590" y="244" />
<use href="#D" x="590" y="254" />
<use href="#D" x="590" y="264" />
<use href="#D" x="590" y="274" />
<use href="#D" x="590" y="284" />
<use href="#D" x="590" y="294" />
<use href="#D" x="590" y="304" />
<use href="#D" x="590" y="314" />
<use href="#D" x="590" y="324" />
<use href="#D" x="590" y="334" />
<use href="#D" x="590" y="344" />
<use href="#D" x="590" y="354" />
<use href="#D" x="590" y="364" />
<use href="#D" x="590" y="374" />
<use href="#D" x="590" y="384" />
<use href="#D" x="600" y="174" />
<use href="#D" x="600" y="184" />
<use href="#D" x="600" y="194" />
<use href="#D" x="600" y="204" />
<use href="#D" x="600" y="214" />
<use href="#D" x="600" y="224" />
<use href="#D" x="600" y="234" />
<use href="#D" x="600" y="244" />
<use href="#D" x="600" y="254" />
<use href="#D" x="600" y="264" />
<use href="#D" x="600" y="274" />
<use href="#D" x="600" y="284" />
<use href="#D" x="600" y="294" />
<use href="#D" x="600" y="354" />
<use href="#D" x="600" y="364" />
<use href="#D" x="600" y="374" />
<use href="#D" x="600" y="384" />
<use href="#D" x="610" y="184" />
<use href="#D" x="610" y="194" />
<use href="#D" x="610" y="204" />
<use href="#D" x="610" y="214" />
<use href="#D" x="610" y="224" />
<use href="#D" x="610" y="234" />
<use href="#D" x="610" y="244" />
<use href="#D" x="610" y="254" />
<use href="#D" x="610" y="264" />
<use href="#D" x="610" y="274" />
<use href="#D" x="610" y="284" />
<use href="#D" x="610" y="294" />
<use href="#D" x="610" y="354" />
<use href="#D" x="610" y="364" />
<use href="#D" x="610" y="374" />
<use href="#D" x="610" y="384" />
<use href="#D" x="620" y="184" />
<use href="#D" x="620" y="194" />
<use href="#D" x="620" y="204" />
<use href="#D" x="620" y="214" />
<use href="#D" x="620" y="224" />
<use href="#D" x="620" y="234" />
<use href="#D" x="620" y="244" />
<use href="#D" x="620" y="254" />
<use href="#D" x="620" y="264" />
<use href="#D" x="620" y="274" />
<use href="#D" x="620" y="284" />
<use href="#D" x="620" y="294" />
<use href="#D" x="620" y="354" />
<use href="#D" x="620" y="364" />
<use href="#D" x="620" y="374" />
<use href="#D" x="620" y="384" />
<use href="#D" x="630" y="184" />
<use href="#D" x="630" y="194" />
<use href="#D" x="630" y="204" />
<use href="#D" x="630" y="214" />
<use href="#D" x="630" y="224" />
<use href="#D" x="630" y="234" />
<use href="#D" x="630" y="244" />
<use href="#D" x="630" y="254" />
<use href="#D" x="630" y="264" />
<use href="#D" x="630" y="274" />
<use href="#D" x="630" y="284" />
<use href="#D" x="630" y="294" />
<use href="#D" x="630" y="354" />
<use href="#D" x="630" y="364" />
<use href="#D" x="630" y="374" />
<use href="#D" x="630" y="384" />
<use href="#D" x="640" y="184" />
<use href="#D" x="640" y="194" />
<use href="#D" x="640" y="204" />
<use href="#D" x="640" y="214" />
<use href="#D" x="640" y="224" />
<use href="#D" x="640" y="234" />
<use href="#D" x="640" y="244" />
<use href="#D" x="640" y="254" />
<use href="#D" x="640" y="264" />
<use href="#D" x="640" y="274" />
<use href="#D" x="640" y="284" />
<use href="#D" x="640" y="294" />
<use href="#D" x="640" y="354" />
<use href="#D" x="640" y="364" />
<use href="#D" x="640" y="374" />
<use href="#D" x="640" y="384" />
<use href="#D" x="650" y="184" />
<use href="#D" x="650" y="194" />
<use href="#D" x="650" y="204" />
<use href="#D" x="650" y="214" />
<use href="#D" x="650" y="224" />
<use href="#D" x="650" y="234" />
<use href="#D" x="650" y="244" />
<use href="#D" x="650" y="254" />
<use href="#D" x="650" y="264" />
<use href="#D" x="650" y="274" />
<use href="#D" x="650" y="284" />
<use href="#D" x="650" y="294" />
<use href="#D" x="650" y="304" />
<use href="#D" x="650" y="314" />
<use href="#D" x="650" y="324" />
<use href="#D" x="650" y="334" />
<use href="#D" x="650" y="344" />
<use href="#D" x="650" y="354" />
<use href="#D" x="650" y="364" />
<use href="#D" x="650" y="374" />
<use href="#D" x="650" y="384" />
<use href="#D" x="660" y="184" />
<use href="#D" x="660" y="194" />
<use href="#D" x="660" y="204" />
<use href="#D" x="660" y="214" />
<use href="#D" x="660" y="224" />
<use href="#D" x="660" y="234" />
<use href="#D" x="660" y="244" />
<use href="#D" x="660" y="254" />
<use href="#D" x="660" y="264" />
<use href="#D" x="660" y="274" />
<use href="#D" x="660" y="284" />
<use href="#D" x="660" y="294" />
<use href="#D" x="660" y="304" />
<use href="#D" x="660" y="314" />
<use href="#D" x="660" y="324" />
<use href="#D" x="660" y="334" />
<use href="#D" x="660" y="344" />
<use href="#D" x="660" y="354" />
<use href="#D" x="660" y="364" />
<use href="#D" x="660" y="374" />
<use href="#D" x="660" y="384" />
<use href="#D" x="670" y="184" />
<use href="#D" x="670" y="194" />
<use href="#D" x="670" y="204" />
<use href="#D" x="670" y="214" />
<use href="#D" x="670" y="224" />
<use href="#D" x="670" y="234" />
<use href="#D" x="670" y="244" />
<use href="#D" x="670" y="254" />
<use href="#D" x="670" y="264" />
<use href="#D" x="670" y="274" />
<use href="#D" x="670" y="284" />
<use href="#D" x="670" y="294" />
<use href="#D" x="670" y="304" />
<use href="#D" x="670" y="314" />
<use href="#D" x="670" y="324" />
<use href="#D" x="670" y="334" />
<use href="#D" x="670" y="344" />
<use href="#D" x="670" y="354" />
<use href="#D" x="670" y="364" />
<use href="#D" x="670" y="374" />
<use href="#D" x="670" y="384" />
<use href="#D" x="680" y="184" />
<use href="#D" x="680" y="194" />
<use href="#D" x="680" y="204" />
<use href="#D" x="680" y="214" />
<use href="#D" x="680" y="224" />
<use href="#D" x="680" y="234" />
<use href="#D" x="680" y="244" />
<use href="#D" x="680" y="254" />
<use href="#D" x="680" y="264" />
<use href="#D" x="680" y="274" />
<use href="#D" x="680" y="284" />
<use href="#D" x="680" y="294" />
<use href="#D" x="680" y="304" />
<use href="#D" x="680" y="314" />
<use href="#D" x="680" y="324" />
<use href="#D" x="680" y="334" />
<use href="#D" x="680" y="344" />
<use href="#D" x="680" y="354" />
<use href="#D" x="680" y="364" />
<use href="#D" x="680" y="374" />
<use href="#D" x="680" y="384" />
</g><!-- end of Group id=Data_29 -->


<g id="Guides_29">
<line x1="400" y1="84" x2="400" y2="404" stroke-width="0.9" stroke="#333" />
<line x1="380" y1="104" x2="700" y2="104" stroke-width="0.9" stroke="#333" />
<line x1="450" y1="84" x2="450" y2="404" stroke-width="0.9" stroke="#333" />
<line x1="380" y1="154" x2="700" y2="154" stroke-width="0.9" stroke="#333" />
<line x1="500" y1="84" x2="500" y2="404" stroke-width="0.9" stroke="#333" />
<line x1="380" y1="204" x2="700" y2="204" stroke-width="0.9" stroke="#333" />
<line x1="550" y1="84" x2="550" y2="404" stroke-width="0.9" stroke="#333" />
<line x1="380" y1="254" x2="700" y2="254" stroke-width="0.9" stroke="#333" />
<line x1="600" y1="84" x2="600" y2="404" stroke-width="0.9" stroke="#333" />
<line x1="380" y1="304" x2="700" y2="304" stroke-width="0.9" stroke="#333" />
<line x1="650" y1="84" x2="650" y2="404" stroke-width="0.9" stroke="#333" />
<line x1="380" y1="354" x2="700" y2="354" stroke-width="0.9" stroke="#333" />
<line x1="700" y1="84" x2="700" y2="404" stroke-width="0.9" stroke="#333" />
<line x1="380" y1="404" x2="700" y2="404" stroke-width="0.9" stroke="#333" />
</g><!-- end of Group id=Guides_29 -->


<g id="Alignment_29">
<use href="#A5" x="600" y="304" />
<use href="#A3" x="610" y="314" />
<use href="#A1" x="620" y="324" />
</g><!-- end of Group id=Alignment_29 -->


<g id="Position_29">
<use href="#P7" x="400" y="104" />
<use href="#P7" x="620" y="104" />
<use href="#P7" x="400" y="324" />
<use href="#P5" x="410" y="114" />
<use href="#P5" x="630" y="114" />
<use href="#P5" x="410" y="334" />
<use href="#P3" x="420" y="124" />
<use href="#P3" x="640" y="124" />
<use href="#P3" x="420" y="344" />
</g><!-- end of Group id=Position_29 -->


<g id="QrNotes_29">
<rect x="432" y="30" width="216" height="30" fill="#fff" stroke="#000" stroke-width="3.0" rx="15.0" />
<text x="440" y="50" font-size="20" fill="#333">⚿</text>
<rect x="380" y="438" width="320" height="49" fill="#fff" stroke="#000" stroke-width="3.0" rx="10" />
<text x="388" y="458" font-size="20" fill="#333">✽</text>
<text x="432" y="420" font-size="13.0" fill="#000">Never scan this image into a device</text>
<text x="452" y="434" font-size="13.0" fill="#000">that connects to the internet.</text>
</g><!-- end of Group id=QrNotes_29 -->

</g><!-- end of Group id=QRCode_29 -->

</svg>
